<svg data-v-b90af754="" version="1.0" xmlns="http://www.w3.org/2000/svg" xmlns:xlink="http://www.w3.org/1999/xlink" width="100%" height="100%" viewBox="0 0 340.000000 250.000000" preserveAspectRatio="xMidYMid meet" color-interpolation-filters="sRGB" class="el-tooltip" style="margin: auto;"><rect data-v-b90af754="" x="0" y="0" width="100%" height="100%" fill="#fff" fill-opacity="1"></rect>  <g data-v-b90af754="" fill="#008ab3" class="icon-svg-group iconsvg" transform="translate(80.0270004272461,82.18864059448242)"><g class="iconsvg-imagesvg" transform="translate(66.9729995727539,0)"><rect fill="#008ab3" fill-opacity="0" stroke-width="2" x="0" y="0" width="46" height="40.820985091526"></rect> <svg x="0" y="0" width="46" height="40.820985091526" class="imagesvg-svg"><svg xmlns="http://www.w3.org/2000/svg" viewBox="0 0 264.95 235.12"><g><g fill-rule="evenodd"><path d="M129.2 0l46.46 80.46C111 106 63.46 142.06 23.6 182.91l37.73-65.35L129.2 0zm56.65 98.12c-25.34 20.62-45.53 43.94-45.53 72.47 0 39.63 61 64.54 124.62 64.54l-67.87-117.57z" fill="#008ab3"></path><path d="M0 235.12C59.36 155.44 137.4 99.6 230.92 63.52c-48.53 28.6-119.1 75.92-119.1 117.28 0 23.38 22.06 44.61 44.36 54.32z" fill="#e94a2e"></path></g></g></svg></svg> <!----></g> <g transform="translate(0,47.82271957397461)"><g class="tp-name iconsvg-namesvg"><g><path transform="translate(-1.89,29.82)" d="M3.02 0L3.02 0Q2.56 0 2.23-0.34L2.23-0.34L2.23-0.34Q1.89-0.67 1.89-1.13L1.89-1.13L1.89-20.71L1.89-20.71Q1.89-21.17 2.23-21.50L2.23-21.50L2.23-21.50Q2.56-21.84 3.02-21.84L3.02-21.84L9.95-21.84L9.95-21.84Q10.42-21.84 10.75-21.50L10.75-21.50L10.75-21.50Q11.09-21.17 11.09-20.71L11.09-20.71L11.09-19.32L11.09-19.32Q11.97-20.50 13.65-21.38L13.65-21.38L13.65-21.38Q15.33-22.26 17.43-22.26L17.43-22.26L17.43-22.26Q21.92-22.26 23.56-18.82L23.56-18.82L23.56-18.82Q24.57-20.29 26.33-21.27L26.33-21.27L26.33-21.27Q28.10-22.26 29.99-22.26L29.99-22.26L29.99-22.26Q33.39-22.26 35.55-19.93L35.55-19.93L35.55-19.93Q37.72-17.60 37.72-12.89L37.72-12.89L37.72-1.13L37.72-1.13Q37.72-0.67 37.38-0.34L37.38-0.34L37.38-0.34Q37.04 0 36.58 0L36.58 0L29.19 0L29.19 0Q28.73 0 28.39-0.34L28.39-0.34L28.39-0.34Q28.06-0.67 28.06-1.13L28.06-1.13L28.06-12.68L28.06-12.68Q28.06-13.69 27.62-14.22L27.62-14.22L27.62-14.22Q27.17-14.74 26.38-14.74L26.38-14.74L26.38-14.74Q25.58-14.74 25.16-14.22L25.16-14.22L25.16-14.22Q24.74-13.69 24.74-12.68L24.74-12.68L24.74-1.13L24.74-1.13Q24.74-0.67 24.40-0.34L24.40-0.34L24.40-0.34Q24.07 0 23.60 0L23.60 0L16.21 0L16.21 0Q15.75 0 15.41-0.34L15.41-0.34L15.41-0.34Q15.08-0.67 15.08-1.13L15.08-1.13L15.08-12.68L15.08-12.68Q15.08-13.69 14.64-14.22L14.64-14.22L14.64-14.22Q14.20-14.74 13.40-14.74L13.40-14.74L13.40-14.74Q12.60-14.74 12.16-14.20L12.16-14.20L12.16-14.20Q11.72-13.65 11.72-12.68L11.72-12.68L11.72-1.13L11.72-1.13Q11.72-0.67 11.38-0.34L11.38-0.34L11.38-0.34Q11.05 0 10.58 0L10.58 0L3.02 0ZM45.61 7.98L45.61 7.98Q45.23 7.98 44.96 7.73L44.96 7.73L44.96 7.73Q44.69 7.48 44.69 7.10L44.69 7.10L44.69 7.10Q44.69 7.06 44.67 6.93L44.67 6.93L44.67 6.93Q44.65 6.80 44.73 6.68L44.73 6.68L48.09-1.39L39.98-20.54L39.98-20.54Q39.94-20.66 39.94-20.83L39.94-20.83L39.94-20.83Q40.03-21.25 40.32-21.55L40.32-21.55L40.32-21.55Q40.61-21.84 40.99-21.84L40.99-21.84L48.09-21.84L48.09-21.84Q49.06-21.84 49.43-20.83L49.43-20.83L52.88-11.26L56.45-20.83L56.45-20.83Q56.87-21.84 57.88-21.84L57.88-21.84L64.89-21.84L64.89-21.84Q65.27-21.84 65.56-21.57L65.56-21.57L65.56-21.57Q65.86-21.29 65.86-20.96L65.86-20.96L65.86-20.96Q65.86-20.71 65.81-20.54L65.81-20.54L53.97 6.97L53.97 6.97Q53.55 7.98 52.50 7.98L52.50 7.98L45.61 7.98Z"></path></g> <g transform="translate(66.97000122070312,0)"><path transform="translate(-3.444,29.82)" d="M4.37 0L4.37 0Q3.95 0 3.70-0.25L3.70-0.25L3.70-0.25Q3.44-0.50 3.44-0.92L3.44-0.92L3.44-28.90L3.44-28.90Q3.44-29.32 3.70-29.57L3.70-29.57L3.70-29.57Q3.95-29.82 4.37-29.82L4.37-29.82L5.08-29.82L5.08-29.82Q5.50-29.82 5.75-29.57L5.75-29.57L5.75-29.57Q6.01-29.32 6.01-28.90L6.01-28.90L6.01-18.94L6.01-18.94Q7.27-20.58 8.88-21.42L8.88-21.42L8.88-21.42Q10.50-22.26 13.06-22.26L13.06-22.26L13.06-22.26Q17.18-22.26 19.40-19.64L19.40-19.64L19.40-19.64Q21.63-17.01 21.63-12.85L21.63-12.85L21.63-0.92L21.63-0.92Q21.63-0.50 21.38-0.25L21.38-0.25L21.38-0.25Q21.13 0 20.71 0L20.71 0L19.99 0L19.99 0Q19.57 0 19.32-0.25L19.32-0.25L19.32-0.25Q19.07-0.50 19.07-0.92L19.07-0.92L19.07-12.64L19.07-12.64Q19.07-16.04 17.41-17.93L17.41-17.93L17.41-17.93Q15.75-19.82 12.64-19.82L12.64-19.82L12.64-19.82Q9.62-19.82 7.81-17.91L7.81-17.91L7.81-17.91Q6.01-16.00 6.01-12.64L6.01-12.64L6.01-0.92L6.01-0.92Q6.01-0.50 5.75-0.25L5.75-0.25L5.75-0.25Q5.50 0 5.08 0L5.08 0L4.37 0ZM36.33 0.42L36.33 0.42Q32.34 0.42 29.90-2.21L29.90-2.21L29.90-2.21Q27.47-4.83 27.13-9.24L27.13-9.24L27.09-10.92L27.13-12.60L27.13-12.60Q27.47-16.97 29.88-19.61L29.88-19.61L29.88-19.61Q32.30-22.26 36.33-22.26L36.33-22.26L36.33-22.26Q40.70-22.26 43.16-19.36L43.16-19.36L43.16-19.36Q45.61-16.46 45.61-11.42L45.61-11.42L45.61-10.79L45.61-10.79Q45.61-10.37 45.34-10.12L45.34-10.12L45.34-10.12Q45.07-9.87 44.65-9.87L44.65-9.87L29.69-9.87L29.69-9.45L29.69-9.45Q29.78-7.48 30.60-5.78L30.60-5.78L30.60-5.78Q31.42-4.07 32.89-3.05L32.89-3.05L32.89-3.05Q34.36-2.02 36.33-2.02L36.33-2.02L36.33-2.02Q38.64-2.02 40.09-2.92L40.09-2.92L40.09-2.92Q41.54-3.82 42.17-4.75L42.17-4.75L42.17-4.75Q42.55-5.25 42.73-5.38L42.73-5.38L42.73-5.38Q42.92-5.50 43.43-5.50L43.43-5.50L44.10-5.50L44.10-5.50Q44.48-5.50 44.73-5.29L44.73-5.29L44.73-5.29Q44.98-5.08 44.98-4.75L44.98-4.75L44.98-4.75Q44.98-3.86 43.87-2.63L43.87-2.63L43.87-2.63Q42.76-1.39 40.78-0.48L40.78-0.48L40.78-0.48Q38.81 0.42 36.33 0.42L36.33 0.42M29.69-12.22L43.05-12.22L43.05-12.39L43.05-12.39Q43.05-15.62 41.22-17.72L41.22-17.72L41.22-17.72Q39.40-19.82 36.33-19.82L36.33-19.82L36.33-19.82Q33.26-19.82 31.48-17.72L31.48-17.72L31.48-17.72Q29.69-15.62 29.69-12.39L29.69-12.39L29.69-12.22ZM57.04 0.42L57.04 0.42Q55.02 0.42 53.30-0.42L53.30-0.42L53.30-0.42Q51.58-1.26 50.55-2.69L50.55-2.69L50.55-2.69Q49.52-4.12 49.52-5.84L49.52-5.84L49.52-5.84Q49.52-8.61 51.77-10.37L51.77-10.37L51.77-10.37Q54.01-12.14 57.83-12.64L57.83-12.64L64.47-13.57L64.47-15.04L64.47-15.04Q64.47-17.35 63.06-18.59L63.06-18.59L63.06-18.59Q61.66-19.82 58.76-19.82L58.76-19.82L58.76-19.82Q56.62-19.82 55.25-18.98L55.25-18.98L55.25-18.98Q53.89-18.14 53.51-16.97L53.51-16.97L53.51-16.97Q53.34-16.46 53.11-16.28L53.11-16.28L53.11-16.28Q52.88-16.09 52.50-16.09L52.50-16.09L51.91-16.09L51.91-16.09Q51.53-16.09 51.26-16.36L51.26-16.36L51.26-16.36Q50.99-16.63 50.99-17.01L50.99-17.01L50.99-17.01Q50.99-17.93 51.83-19.17L51.83-19.17L51.83-19.17Q52.67-20.41 54.43-21.34L54.43-21.34L54.43-21.34Q56.20-22.26 58.76-22.26L58.76-22.26L58.76-22.26Q63.25-22.26 65.14-20.12L65.14-20.12L65.14-20.12Q67.03-17.98 67.03-14.91L67.03-14.91L67.03-0.92L67.03-0.92Q67.03-0.50 66.78-0.25L66.78-0.25L66.78-0.25Q66.53 0 66.11 0L66.11 0L65.39 0L65.39 0Q64.97 0 64.72-0.25L64.72-0.25L64.72-0.25Q64.47-0.50 64.47-0.92L64.47-0.92L64.47-2.90L64.47-2.90Q63.55-1.51 61.76-0.55L61.76-0.55L61.76-0.55Q59.98 0.42 57.04 0.42L57.04 0.42M57.46-2.02L57.46-2.02Q60.52-2.02 62.50-4.03L62.50-4.03L62.50-4.03Q64.47-6.05 64.47-9.83L64.47-9.83L64.47-11.26L59.05-10.50L59.05-10.50Q55.61-10.04 53.84-8.90L53.84-8.90L53.84-8.90Q52.08-7.77 52.08-6.05L52.08-6.05L52.08-6.05Q52.08-4.12 53.70-3.07L53.70-3.07L53.70-3.07Q55.31-2.02 57.46-2.02L57.46-2.02ZM74.63 0L74.63 0Q74.21 0 73.96-0.25L73.96-0.25L73.96-0.25Q73.71-0.50 73.71-0.92L73.71-0.92L73.71-28.90L73.71-28.90Q73.71-29.32 73.96-29.57L73.96-29.57L73.96-29.57Q74.21-29.82 74.63-29.82L74.63-29.82L75.35-29.82L75.35-29.82Q75.77-29.82 76.02-29.57L76.02-29.57L76.02-29.57Q76.27-29.32 76.27-28.90L76.27-28.90L76.27-0.92L76.27-0.92Q76.27-0.50 76.02-0.25L76.02-0.25L76.02-0.25Q75.77 0 75.35 0L75.35 0L74.63 0ZM90.47 0L90.47 0Q87.36 0 86.06-1.87L86.06-1.87L86.06-1.87Q84.76-3.74 84.76-7.01L84.76-7.01L84.76-19.40L81.48-19.40L81.48-19.40Q81.06-19.40 80.81-19.66L80.81-19.66L80.81-19.66Q80.56-19.91 80.56-20.33L80.56-20.33L80.56-20.92L80.56-20.92Q80.56-21.34 80.81-21.59L80.81-21.59L80.81-21.59Q81.06-21.84 81.48-21.84L81.48-21.84L84.76-21.84L84.76-28.90L84.76-28.90Q84.76-29.32 85.01-29.57L85.01-29.57L85.01-29.57Q85.26-29.82 85.68-29.82L85.68-29.82L86.39-29.82L86.39-29.82Q86.81-29.82 87.07-29.57L87.07-29.57L87.07-29.57Q87.32-29.32 87.32-28.90L87.32-28.90L87.32-21.84L92.53-21.84L92.53-21.84Q92.95-21.84 93.20-21.59L93.20-21.59L93.20-21.59Q93.45-21.34 93.45-20.92L93.45-20.92L93.45-20.33L93.45-20.33Q93.45-19.91 93.20-19.66L93.20-19.66L93.20-19.66Q92.95-19.40 92.53-19.40L92.53-19.40L87.32-19.40L87.32-7.18L87.32-7.18Q87.32-4.83 88.10-3.63L88.10-3.63L88.10-3.63Q88.87-2.44 90.68-2.44L90.68-2.44L92.95-2.44L92.95-2.44Q93.37-2.44 93.62-2.18L93.62-2.18L93.62-2.18Q93.87-1.93 93.87-1.51L93.87-1.51L93.87-0.92L93.87-0.92Q93.87-0.50 93.62-0.25L93.62-0.25L93.62-0.25Q93.37 0 92.95 0L92.95 0L90.47 0ZM99.16 0L99.16 0Q98.74 0 98.49-0.25L98.49-0.25L98.49-0.25Q98.24-0.50 98.24-0.92L98.24-0.92L98.24-28.90L98.24-28.90Q98.24-29.32 98.49-29.57L98.49-29.57L98.49-29.57Q98.74-29.82 99.16-29.82L99.16-29.82L99.88-29.82L99.88-29.82Q100.30-29.82 100.55-29.57L100.55-29.57L100.55-29.57Q100.80-29.32 100.80-28.90L100.80-28.90L100.80-18.94L100.80-18.94Q102.06-20.58 103.68-21.42L103.68-21.42L103.68-21.42Q105.29-22.26 107.86-22.26L107.86-22.26L107.86-22.26Q111.97-22.26 114.20-19.64L114.20-19.64L114.20-19.64Q116.42-17.01 116.42-12.85L116.42-12.85L116.42-0.92L116.42-0.92Q116.42-0.50 116.17-0.25L116.17-0.25L116.17-0.25Q115.92 0 115.50 0L115.50 0L114.79 0L114.79 0Q114.37 0 114.11-0.25L114.11-0.25L114.11-0.25Q113.86-0.50 113.86-0.92L113.86-0.92L113.86-12.64L113.86-12.64Q113.86-16.04 112.20-17.93L112.20-17.93L112.20-17.93Q110.54-19.82 107.44-19.82L107.44-19.82L107.44-19.82Q104.41-19.82 102.61-17.91L102.61-17.91L102.61-17.91Q100.80-16.00 100.80-12.64L100.80-12.64L100.80-0.92L100.80-0.92Q100.80-0.50 100.55-0.25L100.55-0.25L100.55-0.25Q100.30 0 99.88 0L99.88 0L99.16 0Z"></path></g></g> <!----></g></g></svg>